<svg width="2464" height="1116" fill="none" xmlns="http://www.w3.org/2000/svg"><rect width="183.103" height="620.785" rx="91.551" transform="scale(-1 1) rotate(70.386 -1426.307 -988.307)" fill="url(#a)" fill-opacity=".32"/><path fill-rule="evenodd" clip-rule="evenodd" d="M1995 1115.72V320H395v795.72c162.983-56.31 460.274-94 800-94 339.73 0 637.02 37.69 800 94Z" fill="url(#b)"/><rect x="807" y="434.406" width="183.103" height="620.785" rx="91.551" transform="rotate(-38.669 807 434.406)" fill="url(#c)" fill-opacity=".22"/><rect x="388" y="114.406" width="183.103" height="620.785" rx="91.551" transform="rotate(-38.669 388 114.406)" fill="#7373FF" fill-opacity=".22"/><rect x="72" y="309.406" width="183.103" height="620.785" rx="91.551" transform="rotate(-38.669 72 309.406)" fill="#7373FF" fill-opacity=".22"/><rect y="628.406" width="183.103" height="620.785" rx="91.551" transform="rotate(-38.669 0 628.406)" fill="#7373FF" fill-opacity=".22"/><rect width="183.103" height="620.785" rx="91.551" transform="scale(1 -1) rotate(24.438 2451.723 3788.105)" fill="url(#d)" fill-opacity=".22"/><circle cx="480" cy="564" r="15" fill="url(#e)" fill-opacity=".4"/><circle cx="1995" cy="660" r="15" fill="url(#f)" fill-opacity=".4"/><circle cx="411" cy="937" r="50" fill="url(#g)" fill-opacity=".4"/><defs><linearGradient id="a" x1="91.551" y1="0" x2="123.384" y2="580.434" gradientUnits="userSpaceOnUse"><stop stop-color="#7373FF"/><stop offset="1" stop-color="#7373FF" stop-opacity="0"/></linearGradient><linearGradient id="b" x1="590" y1="715.76" x2="2353.87" y2="-838.276" gradientUnits="userSpaceOnUse"><stop stop-color="#1A1822"/><stop offset="1" stop-color="#9040E3"/></linearGradient><linearGradient id="c" x1="898.551" y1="434.406" x2="930.384" y2="1014.84" gradientUnits="userSpaceOnUse"><stop offset=".236" stop-color="#7373FF"/><stop offset="1" stop-color="#7373FF" stop-opacity="0"/></linearGradient><linearGradient id="d" x1="91.551" y1="0" x2="123.384" y2="580.434" gradientUnits="userSpaceOnUse"><stop offset=".236" stop-color="#7373FF"/><stop offset="1" stop-color="#7373FF" stop-opacity="0"/></linearGradient><linearGradient id="e" x1="468.9" y1="553.5" x2="485.4" y2="579" gradientUnits="userSpaceOnUse"><stop stop-color="#6E5BFF"/><stop offset="1" stop-color="#6D58FF"/></linearGradient><linearGradient id="f" x1="1983.9" y1="649.5" x2="2000.4" y2="675" gradientUnits="userSpaceOnUse"><stop stop-color="#6E5BFF"/><stop offset="1" stop-color="#6D58FF"/></linearGradient><linearGradient id="g" x1="374" y1="902" x2="429" y2="987" gradientUnits="userSpaceOnUse"><stop stop-color="#6E5BFF"/><stop offset="1" stop-color="#6D58FF"/></linearGradient></defs></svg>