<svg xmlns="http://www.w3.org/2000/svg" width="113" height="19" fill="none"><g fill="#42A8DF" clip-path="url(#a)"><path d="M9.44.99a.97.97 0 0 1 1.78 0l1.95 4.63c.14.33.45.55.82.58l5.05.4a.95.95 0 0 1 .55 1.68l-3.85 3.26c-.27.23-.4.6-.31.95l1.18 4.87c.2.83-.71 1.48-1.45 1.04l-4.33-2.61a.98.98 0 0 0-1 0l-4.33 2.6c-.74.45-1.65-.2-1.45-1.03l1.18-4.87a.95.95 0 0 0-.31-.95L1.07 8.28a.95.95 0 0 1 .55-1.68l5.05-.4a.97.97 0 0 0 .82-.58L9.44.99ZM32.48.99a.97.97 0 0 1 1.79 0l1.95 4.63c.14.33.45.55.81.58l5.06.4a.95.95 0 0 1 .55 1.68l-3.85 3.26c-.28.23-.4.6-.31.95l1.17 4.87c.2.83-.7 1.48-1.44 1.04l-4.33-2.61a.98.98 0 0 0-1 0l-4.34 2.6c-.73.45-1.64-.2-1.44-1.03l1.18-4.87a.95.95 0 0 0-.31-.95L24.1 8.28a.95.95 0 0 1 .55-1.68l5.06-.4a.97.97 0 0 0 .82-.58L32.48.99ZM55.53.99a.97.97 0 0 1 1.78 0l1.95 4.63c.14.33.46.55.82.58l5.05.4a.95.95 0 0 1 .55 1.68l-3.85 3.26c-.27.23-.4.6-.3.95l1.17 4.87c.2.83-.71 1.48-1.45 1.04l-4.33-2.61a.98.98 0 0 0-1 0l-4.33 2.6c-.74.45-1.64-.2-1.45-1.03l1.18-4.87a.95.95 0 0 0-.3-.95l-3.86-3.26a.95.95 0 0 1 .55-1.68l5.06-.4a.97.97 0 0 0 .81-.58L55.53.99ZM78.58 1a.97.97 0 0 1 1.78 0l1.95 4.62c.14.33.45.55.81.58l5.06.4a.95.95 0 0 1 .55 1.68l-3.85 3.26c-.28.23-.4.6-.31.95l1.17 4.87c.2.83-.7 1.48-1.44 1.04l-4.33-2.61a.98.98 0 0 0-1 0l-4.34 2.6c-.73.45-1.64-.2-1.44-1.03l1.18-4.87a.95.95 0 0 0-.31-.95L70.2 8.28a.95.95 0 0 1 .56-1.68l5.05-.4a.97.97 0 0 0 .82-.58L78.58.99ZM101.62.99a.97.97 0 0 1 1.78 0l1.95 4.63c.14.33.46.55.82.58l5.05.4a.95.95 0 0 1 .56 1.68l-3.86 3.26c-.27.23-.4.6-.3.95l1.17 4.87c.2.83-.71 1.48-1.45 1.04l-4.32-2.61a.98.98 0 0 0-1.01 0l-4.33 2.6c-.73.45-1.64-.2-1.44-1.03l1.17-4.87a.95.95 0 0 0-.3-.95l-3.86-3.26a.95.95 0 0 1 .55-1.68l5.06-.4a.97.97 0 0 0 .81-.58l1.95-4.63Z"/></g><defs><clipPath id="a"><path fill="#fff" d="M.73.4h111.39v18.14H.72z"/></clipPath></defs></svg>